<svg xmlns="http://www.w3.org/2000/svg" width="156" height="52" fill="none"><path fill="#fff" d="M17.714 9.447c-4.09.901-7.99 4.836-9.638 9.741-.45 1.352-.537 1.785-.346 1.716.537-.208 2.41-1.577 3.19-2.34l.831-.797-.017 1.386c-.018 1.37.139 1.907.71 2.548.468.555.85.364 1.44-.676l.571-.988.226 1.023c.294 1.317.624 1.82 1.196 1.82.623 0 1.473-.399 2.184-1.023l.606-.537.087 1.785c.07 1.474.173 1.994.641 3.138.607 1.542 1.768 3.38 2.652 4.212.659.624 3.952 2.998 4.16 2.998.226 0-.277-1.057-1.508-3.276-1.508-2.721-2.01-4.177-2.115-6.309-.104-1.63-.086-1.716.451-2.808.85-1.733 1.942-2.357 4.455-2.617 2.097-.226.988-.59-1.75-.59-1.907 0-3.589.347-5.097 1.04-.85.382-1.023.434-.659.156.26-.19.468-.416.468-.502 0-.07-.329-.191-.745-.243-.85-.139-2.582-.936-3.241-1.49-.486-.434-.555-.434 1.473.311.97.364 1.526.451 2.773.468 1.491 0 1.613-.034 2.826-.676 1.664-.901 2.981-2.496 2.981-3.657 0-2.08-3.362-4.108-6.742-4.056-.538 0-1.457.121-2.063.243Zm4.836 2.773c1.005.503 2.41 2.028 2.41 2.6 0 .07-.382-.225-.867-.659-1.352-1.213-2.687-1.698-4.022-1.438-.312.052-1.473.606-2.565 1.23-1.092.624-2.132 1.127-2.306 1.127-.346 0 2.15-2.063 3.069-2.548 1.49-.78 3.12-.901 4.28-.312Zm-.884 1.473c.381.208.728 1.11.572 1.526-.052.156-.26.468-.45.676-1.076 1.196-2.688-.555-1.786-1.924.312-.486 1.057-.607 1.664-.278Z"/><path fill="#fff" d="M27.006 14.543c-.26.468-.85 1.248-1.283 1.733-.433.485-.728.884-.641.884.832 0 3.24.433 3.813.693.78.347 1.439 1.196 1.439 1.855 0 .607.26.468.624-.33.225-.485.329-1.109.329-1.871-.017-1.872-.797-2.895-2.67-3.467a48.202 48.202 0 0 0-1.126-.347s-.225.382-.485.85Zm1.005.554c.173.295-.225.624-.468.382-.208-.208-.07-.572.19-.572.087 0 .209.086.278.19Zm26.329-.485c-.121.312-2.115 25.133-2.045 25.29.034.086 1.386.138 2.981.138h2.93l.103-.919c.052-.485.295-3.588.538-6.881.242-3.293.502-6.188.572-6.448.104-.399.59.867 2.634 6.76l2.514 7.228 1.837.052 1.837.052 1.44-4.125c3.327-9.499 3.795-10.73 3.812-10.106.018.33.278 3.692.572 7.454l.555 6.846 2.999.052 3.016.035-.139-1.56-.121-1.577 1.04 1.022c2.15 2.167 5.096 3.016 8.51 2.462 2.288-.382 4.074-1.352 5.374-2.93l.728-.901v3.484h5.546v-4.472c0-2.53.087-4.732.174-5.096.537-1.89 2.894-2.981 4.333-2.01 1.317.9 1.283.797 1.387 6.43l.086 5.061 2.826.052 2.808.035V28.427h1.352c.235 3.055-.739 9.25 2.166 11.214 1.006.676 2.444.988 3.935.867 1.3-.104 3.467-.763 3.467-1.057 0-.104-.156-.694-.347-1.3-.191-.624-.312-1.144-.277-1.179.017-.035.277.243.572.607.294.364.953.953 1.49 1.317 3.744 2.583 9.62 2.045 12.498-1.144.537-.59.97-1.144.97-1.23 0-.087.312.225.676.693 1.82 2.305 4.75 3.518 7.956 3.293 2.496-.19 4.438-.919 5.859-2.236.901-.832 1.56-1.837 1.352-2.045-.191-.174-3.623-1.907-3.796-1.907-.069 0-.364.19-.641.433-1.023.85-1.89 1.196-3.086 1.196-1.854 0-3.172-.936-3.414-2.409l-.104-.607h11.492v-1.005c-.018-2.427-.971-4.836-2.462-6.188-3.83-3.45-10.608-2.635-13.433 1.612l-.676 1.023-.503-.936c-1.958-3.744-7.973-5.01-12.168-2.566-.398.243-1.126.832-1.612 1.318l-.866.866v-2.946l-1.682-.052-1.698-.052-.052-2.912-.035-2.895h-5.547v5.876l-1.161.052-1.161.052.052 1.04.052 1.023-.815-.746c-1.404-1.3-3.883-2.08-5.911-1.872-1.022.104-2.582.746-3.484 1.439l-.572.433v-1.403h-5.546l-.018 2.547v2.566l-.329-.867c-.78-1.993-2.496-3.536-4.767-4.281-1.438-.468-4.142-.555-5.546-.156-2.167.606-3.918 1.872-5.096 3.709-.59.884-.71.988-.71.641 0-.918-1.197-13.52-1.3-13.693-.174-.277-6.068-.225-6.276.035-.086.121-1.352 3.362-2.825 7.193-1.473 3.848-2.704 6.933-2.756 6.881-.052-.052-1.317-3.276-2.808-7.141l-2.704-7.055-3.241-.052c-2.53-.034-3.259 0-3.31.191Zm34.805 13.017c.66.278 1.248.884 1.491 1.526l.19.485H84.95l.174-.503c.503-1.438 2.461-2.184 4.021-1.508Zm43.074 0c.606.312 1.178.936 1.404 1.526l.19.485h-5.754l.121-.485c.139-.59.711-1.231 1.387-1.526.693-.294 2.062-.312 2.652 0Zm15.86 0c.658.278 1.248.884 1.49 1.526l.191.485h-2.86c-2.704 0-2.86-.017-2.86-.33 0-.467.815-1.403 1.473-1.68.676-.295 1.855-.295 2.566 0Zm-25.359.832c0 .035-.156.555-.347 1.144-.416 1.318-.45 3.415-.104 4.611.226.745.226.815-.069.97-.624.33-1.352.209-1.681-.294-.26-.381-.33-.953-.382-3.207-.034-1.508-.017-2.86.052-2.998.07-.191.399-.26 1.318-.26.658 0 1.213.017 1.213.034ZM96.027 34.58v1.647l-1.907-.954c-1.04-.52-2.01-.953-2.132-.953-.121 0-.416.208-.659.45-.918.989-2.46 1.422-3.882 1.11-1.387-.312-2.27-1.144-2.583-2.479l-.104-.468h11.267v1.647Zm42.206-.347c.208.659.468 1.387.572 1.595.191.33-.069.243-1.681-.555-1.04-.52-1.941-.953-2.011-.953-.069 0-.364.19-.641.433-1.525 1.283-3.519 1.595-4.992.78-.815-.45-1.56-1.508-1.56-2.218v-.382l4.975.035 4.957.052.381 1.213ZM10.14 20.661c-1.179.607-2.739 2.323-3.415 3.779-.71 1.49-1.092 2.93-.936 3.536.07.26.017.45-.121.503-.33.104-.26 2.756.121 4.281.884 3.588 3.016 6.587 6.483 9.152 1.438 1.057 3.605 2.236 3.796 2.063.052-.07-.208-.451-.607-.884-1.872-2.028-3.432-4.715-4.264-7.35-.381-1.248-.693-3.085-.832-5.234l-.052-.607-.555.988c-.572 1.005-1.126 1.525-1.629 1.525-.763 0-1.803-1.49-2.132-3.033-.104-.503-.087-.503.243.121.485.884 1.196 1.352 2.08 1.352 1.126 0 1.906-.884 2.513-2.825a25.19 25.19 0 0 1 1.057-2.79c.312-.711.59-1.405.59-1.543 0-.208-1.422-3.172-1.595-3.346-.035-.017-.364.122-.745.312Zm.849 3.19c-.052.658-1.612 4.142-1.976 4.437-.572.468-1.005.381-1.387-.243-.398-.658-.346-1.022.347-2.478.52-1.075 1.387-2.115 1.993-2.34.451-.174 1.058.208 1.023.624Zm-1.63 10.504c-.017 1.04-.537 1.369-1.143.71-.503-.537-.52-.693-.104-.797.624-.173 1.248-.121 1.248.087Zm20.54-12.203c-.381.19-.919.572-1.196.867-.433.468-.485.641-.399 1.248.122.936.798 1.785 1.786 2.253.658.33.97.381 1.94.295a16.16 16.16 0 0 0 1.596-.208c.832-.226-.035.242-1.006.537-.572.173-.866.347-.78.45.07.14 0 .157-.225.053-.763-.312-1.89-.607-2.392-.624-.295-.018-.399-.052-.225-.104.398-.104.38-.26-.156-.763a4.29 4.29 0 0 1-.78-1.075c-.278-.537-.416-.641-.728-.554-.902.26-1.335.502-1.595.884-.295.468-.347 1.733-.087 2.409l.174.468.329-.399c.277-.346.468-.398 1.213-.364 1.734.07 2.444.884 2.444 2.756-.017 1.3-.52 2.548-1.802 4.368-.555.78-.971 1.474-.902 1.526.208.208 2.01-.85 2.843-1.682 1.56-1.525 2.461-3.206 2.461-4.541v-.537l.399.589c.295.433.52.572.815.537a1.728 1.728 0 0 0 1.42-1.109l.192-.537.346.676.347.658.381-.45c.226-.26.45-.78.52-1.162l.122-.693.953 1.023c.52.572 1.023 1.04 1.11 1.04.225 0 .19-.815-.087-1.838-.59-2.253-2.41-4.61-4.3-5.616-.952-.502-1.282-.589-2.564-.641-1.18-.052-1.612 0-2.167.26Zm3.224 1.75c.832.538 1.924 1.613 1.283 1.266a10.618 10.618 0 0 1-.936-.624c-1.214-.901-2.444-.988-3.398-.26-.693.555-.693.277 0-.347.85-.728 1.942-.745 3.05-.034Zm-1.161.815c.329.312.364.78.069 1.075-.312.312-.745.26-1.092-.139-.659-.728.33-1.629 1.023-.936Z"/><path fill="#fff" d="M13.59 23.955c-.833.728-1.717 2.6-1.977 4.142-.242 1.387-.017 5.374.33 6.015.38.728 1.56 1.421 2.392 1.421.9 0 1.473-.329 1.976-1.161.312-.485.346-.745.26-1.49-.26-1.977-.416-2.115-.85-.746-.693 2.167-2.27 2.357-3.258.416-.434-.867-.416-.901.208-.45 1.629 1.213 3.622-.365 3.622-2.86 0-.555.174-1.82.364-2.774.208-.97.382-1.924.399-2.115.017-.468-.988-.953-2.01-.953-.677 0-.937.104-1.457.555Zm1.663 1.265c.347.416-.381 4.576-.884 4.975-.554.468-.988.381-1.37-.26-.294-.451-.328-.728-.242-1.422.312-2.392 1.716-4.246 2.496-3.293Zm2.512.295c-.069.225-.156 1.681-.208 3.258-.069 2.254-.034 3.103.191 4.039.572 2.41 1.82 4.836 3.519 6.83 1.508 1.75 4.368 3.605 6.621 4.28 1.092.33 3.259.347 4.247.053.728-.226 1.057-.642.502-.642-.173 0-.884-.277-1.577-.606-4.35-2.08-8.441-6.483-11.024-11.874-.884-1.854-1.837-4.645-1.837-5.39 0-.451-.278-.416-.434.052ZM36.59 30.23l-.537.918.346 1.11c.538 1.802.763 2.651.746 2.842-.191 1.855-1.318 4.697-2.548 6.413-.763 1.04-.555 1.179.78.52 1.785-.918 3.674-3.137 4.246-5.009.364-1.213.486-3.224.243-4.333-.208-1.058-1.04-2.323-1.907-2.964-.329-.243-.641-.434-.71-.434-.07 0-.364.416-.659.936Zm1.508 1.195c.468.503.901 1.543.901 2.184 0 .555-.381.798-.849.538-.364-.191-1.144-2.462-.988-2.86.139-.364.503-.33.936.138Zm.381 4.282c.208 0 .52-.087.711-.174.173-.104.33-.121.33-.034 0 .208-.815 1.074-1.006 1.074-.225 0-.641-.398-.988-.953l-.312-.52.45.312c.243.156.625.295.815.295Z"/><path fill="#fff" d="M33.87 30.888c-.364.173-.382.295-.382 2.548-.017 2.617-.07 3.484-.225 3.484-.052 0-.538.641-1.057 1.421-.538.798-1.214 1.664-1.509 1.942-.294.294-.537.572-.537.658 0 .226 1.803 1.179 2.253 1.179.867 0 3.606-3.363 3.433-4.212-.018-.121.104-.433.294-.71.468-.711.572-3.173.19-4.49-.502-1.716-1.368-2.357-2.46-1.82Zm1.404 1.248c.155.243.329.85.38 1.387.087.814.053.988-.19 1.074-.173.07-.416 0-.554-.138-.26-.26-.642-2.34-.486-2.6.173-.278.59-.139.85.277Zm.173 3.71c.606-.07.624.017.121.589-.364.416-.832.381-1.144-.07-.416-.589-.364-.884.087-.641.208.104.624.156.936.121Zm-.624 2.114.45.017-.485.416c-.26.243-.59.434-.728.434-.242 0-.607-.85-.607-1.439 0-.312.035-.295.451.121.26.243.659.451.919.451Z"/><path fill="#fff" d="M31.997 32.881c-.988 2.063-2.912 4.524-4.212 5.374-.486.329-.33.676.59 1.317.987.676 1.42.607 2.218-.347 1.785-2.097 2.34-3.518 2.34-5.945 0-.85-.07-1.577-.156-1.63-.087-.051-.434.503-.78 1.231Zm-15.408 1.716a9.473 9.473 0 0 0-.208 1.144c-.122.746-.59 1.526-.954 1.526-.45 0-1.161-.434-2.01-1.248-.52-.486-.971-.85-1.023-.815-.173.19.33 1.733.97 2.895 2.029 3.796 5.6 6.76 8.962 7.47 1.023.208 3.588.243 4.09.035.278-.104.087-.26-1.005-.85-3.57-1.923-6.604-5.303-7.921-8.805-.555-1.508-.763-1.82-.901-1.352Z"/><path fill="#fff" d="M19.413 3.744C11.353 5.2 4.489 11.128 1.906 18.859 1.005 21.563.779 23.036.779 26.26c0 2.444.07 3.259.416 4.767.971 4.402 3.051 8.233 6.154 11.336 3.189 3.189 7.106 5.321 11.544 6.274 2.08.451 7.106.468 9.186.018 7.003-1.508 12.758-5.928 15.93-12.238 2.6-5.165 3.085-11.526 1.282-17.246C42.83 11.284 35.758 5.165 27.49 3.727c-1.89-.33-6.257-.312-8.077.017ZM26.97 5.98c8.476 1.49 15.184 8.13 16.796 16.605.295 1.578.347 5.235.087 6.83-1.664 10.278-10.886 17.801-21.234 17.333a21.057 21.057 0 0 1-9.897-3.085c-1.803-1.11-5.01-4.178-6.136-5.859a22.143 22.143 0 0 1-3.224-7.679c-.416-1.941-.416-5.945 0-7.817 1.837-8.39 8.025-14.543 16.31-16.241 1.977-.399 5.235-.434 7.298-.087Z"/></svg>